<svg width="71" height="71" viewBox="0 0 71 71" fill="none" xmlns="http://www.w3.org/2000/svg">
<rect width="71" height="71" rx="10" fill="#5956E8"/>
<path d="M45.8401 20.0835C45.4312 20.0835 45.0391 20.2459 44.75 20.535C44.4609 20.8242 44.2985 21.2163 44.2985 21.6252V23.1668H36.5901C36.1812 23.1668 35.7891 23.3293 35.5 23.6184C35.2109 23.9075 35.0485 24.2996 35.0485 24.7085V46.2918C35.0485 46.7007 35.2109 47.0928 35.5 47.382C35.7891 47.6711 36.1812 47.8335 36.5901 47.8335H44.2985V49.3752C44.2985 49.784 44.4609 50.1762 44.75 50.4653C45.0391 50.7544 45.4312 50.9168 45.8401 50.9168C46.249 50.9168 46.6411 50.7544 46.9302 50.4653C47.2194 50.1762 47.3818 49.784 47.3818 49.3752V21.6252C47.3818 21.2163 47.2194 20.8242 46.9302 20.535C46.6411 20.2459 46.249 20.0835 45.8401 20.0835ZM44.2985 44.7502H38.1318V26.2502H44.2985V44.7502ZM30.4235 20.0835C30.0146 20.0835 29.6224 20.2459 29.3333 20.535C29.0442 20.8242 28.8818 21.2163 28.8818 21.6252V24.7085H24.2568C23.8479 24.7085 23.4558 24.8709 23.1667 25.16C22.8775 25.4492 22.7151 25.8413 22.7151 26.2502V44.7502C22.7151 45.159 22.8775 45.5512 23.1667 45.8403C23.4558 46.1294 23.8479 46.2918 24.2568 46.2918H28.8818V49.3752C28.8818 49.784 29.0442 50.1762 29.3333 50.4653C29.6224 50.7544 30.0146 50.9168 30.4235 50.9168C30.8323 50.9168 31.2245 50.7544 31.5136 50.4653C31.8027 50.1762 31.9651 49.784 31.9651 49.3752V21.6252C31.9651 21.2163 31.8027 20.8242 31.5136 20.535C31.2245 20.2459 30.8323 20.0835 30.4235 20.0835ZM28.8818 43.2085H25.7985V27.7918H28.8818V43.2085Z" fill="white"/>
</svg>
